<svg width="898" height="898" viewBox="0 0 898 898" fill="none" xmlns="http://www.w3.org/2000/svg">
<mask id="path-1-inside-1_139_5281" fill="white">
<path d="M898 449C898 696.976 696.976 898 449 898C201.024 898 0 696.976 0 449C0 201.024 201.024 0 449 0C696.976 0 898 201.024 898 449ZM85.2585 449C85.2585 649.889 248.111 812.741 449 812.741C649.889 812.741 812.741 649.889 812.741 449C812.741 248.111 649.889 85.2585 449 85.2585C248.111 85.2585 85.2585 248.111 85.2585 449Z"/>
</mask>
<path d="M898 449C898 696.976 696.976 898 449 898C201.024 898 0 696.976 0 449C0 201.024 201.024 0 449 0C696.976 0 898 201.024 898 449ZM85.2585 449C85.2585 649.889 248.111 812.741 449 812.741C649.889 812.741 812.741 649.889 812.741 449C812.741 248.111 649.889 85.2585 449 85.2585C248.111 85.2585 85.2585 248.111 85.2585 449Z" stroke="#2C3877" stroke-width="2" stroke-dasharray="12 12" mask="url(#path-1-inside-1_139_5281)"/>
</svg>
