<svg width="1600" height="1024" viewBox="0 0 1600 1024" fill="none" xmlns="http://www.w3.org/2000/svg">
<rect width="1600" height="1024" fill="url(#paint0_radial_421_629)"/>
<mask id="path-2-inside-1_421_629" fill="white">
<path d="M1929 554C1929 1050.5 1526.5 1453 1030 1453C533.496 1453 131 1050.5 131 554C131 57.496 533.496 -345 1030 -345C1526.5 -345 1929 57.496 1929 554ZM301.707 554C301.707 956.225 627.775 1282.29 1030 1282.29C1432.23 1282.29 1758.29 956.225 1758.29 554C1758.29 151.775 1432.23 -174.293 1030 -174.293C627.775 -174.293 301.707 151.775 301.707 554Z"/>
</mask>
<path d="M1929 554C1929 1050.5 1526.5 1453 1030 1453C533.496 1453 131 1050.5 131 554C131 57.496 533.496 -345 1030 -345C1526.5 -345 1929 57.496 1929 554ZM301.707 554C301.707 956.225 627.775 1282.29 1030 1282.29C1432.23 1282.29 1758.29 956.225 1758.29 554C1758.29 151.775 1432.23 -174.293 1030 -174.293C627.775 -174.293 301.707 151.775 301.707 554Z" stroke="#2C3877" stroke-width="2" stroke-dasharray="12 12" mask="url(#path-2-inside-1_421_629)"/>
<mask id="path-3-inside-2_421_629" fill="white">
<path d="M1215 679C1215 771.232 1140.23 846 1048 846C955.768 846 881 771.232 881 679C881 586.768 955.768 512 1048 512C1140.23 512 1215 586.768 1215 679ZM933.318 679C933.318 742.337 984.663 793.682 1048 793.682C1111.34 793.682 1162.68 742.337 1162.68 679C1162.68 615.663 1111.34 564.318 1048 564.318C984.663 564.318 933.318 615.663 933.318 679Z"/>
</mask>
<path d="M1215 679C1215 771.232 1140.23 846 1048 846C955.768 846 881 771.232 881 679C881 586.768 955.768 512 1048 512C1140.23 512 1215 586.768 1215 679ZM933.318 679C933.318 742.337 984.663 793.682 1048 793.682C1111.34 793.682 1162.68 742.337 1162.68 679C1162.68 615.663 1111.34 564.318 1048 564.318C984.663 564.318 933.318 615.663 933.318 679Z" stroke="#404473" stroke-width="2" stroke-dasharray="12 12" mask="url(#path-3-inside-2_421_629)"/>
<defs>
<radialGradient id="paint0_radial_421_629" cx="0" cy="0" r="1" gradientUnits="userSpaceOnUse" gradientTransform="translate(517 317) rotate(33.1372) scale(1293.34 1964.61)">
<stop offset="0.603524" stop-color="#020736"/>
<stop offset="1" stop-color="#304496"/>
</radialGradient>
</defs>
</svg>
