<svg width="334" height="334" viewBox="0 0 334 334" fill="none" xmlns="http://www.w3.org/2000/svg">
<mask id="path-1-inside-1_401_800" fill="white">
<path d="M334 167C334 259.232 259.232 334 167 334C74.7684 334 0 259.232 0 167C0 74.7684 74.7684 0 167 0C259.232 0 334 74.7684 334 167ZM52.3181 167C52.3181 230.337 103.663 281.682 167 281.682C230.337 281.682 281.682 230.337 281.682 167C281.682 103.663 230.337 52.3181 167 52.3181C103.663 52.3181 52.3181 103.663 52.3181 167Z"/>
</mask>
<path d="M334 167C334 259.232 259.232 334 167 334C74.7684 334 0 259.232 0 167C0 74.7684 74.7684 0 167 0C259.232 0 334 74.7684 334 167ZM52.3181 167C52.3181 230.337 103.663 281.682 167 281.682C230.337 281.682 281.682 230.337 281.682 167C281.682 103.663 230.337 52.3181 167 52.3181C103.663 52.3181 52.3181 103.663 52.3181 167Z" stroke="#404473" stroke-width="2" stroke-dasharray="12 12" mask="url(#path-1-inside-1_401_800)"/>
</svg>
